<?xml version="1.0" encoding="UTF-8" standalone="no"?>
<!DOCTYPE svg PUBLIC "-//W3C//DTD SVG 20010904//EN"
              "http://www.w3.org/TR/2001/REC-SVG-20010904/DTD/svg10.dtd">

<svg xmlns="http://www.w3.org/2000/svg"
     width="26.4889in" height="18.7111in"
     viewBox="0 0 2384 1684">
  <path id="Zaimportowana ścieżka"
        fill="none" stroke="black" stroke-width="1"
        d="M 472.02,337.84
           C 472.02,337.84 798.53,286.83 798.53,286.83
             798.53,286.83 820.53,420.25 820.53,420.25
             820.53,420.25 760.63,428.45 760.63,428.45
             760.63,428.45 710.53,436.15 710.53,436.15
             710.53,436.15 701.43,438.05 701.43,438.05
             701.43,438.05 691.93,439.95 691.93,439.95
             691.93,439.95 679.03,442.85 679.03,442.85
             679.03,442.85 669.23,445.55 669.23,445.55
             669.23,445.55 659.83,448.25 659.83,448.25
             659.83,448.25 648.93,452.05 648.93,452.05
             648.93,452.05 640.03,455.35 640.03,455.35
             640.03,455.35 632.13,458.35 632.13,458.35
             632.13,458.35 624.43,461.75 624.43,461.75
             624.43,461.75 608.33,469.16 608.33,469.16
             608.33,469.16 594.72,476.36 594.72,476.36
             594.72,476.36 586.02,481.86 586.02,481.86
             586.02,481.86 578.12,486.96 578.12,486.96
             578.12,486.96 565.12,495.36 565.12,495.36
             565.12,495.36 551.02,506.06 551.02,506.06
             551.02,506.06 539.62,515.56 539.62,515.56
             539.62,515.56 530.02,524.36 530.02,524.36
             530.02,524.36 522.32,531.86 522.32,531.86
             522.32,531.86 513.32,541.26 513.32,541.26
             513.32,541.26 506.52,548.37 506.52,548.37
             506.52,548.37 490.82,567.27 490.82,567.27
             490.82,567.27 480.92,581.37 480.92,581.37
             480.92,581.37 473.82,591.57 473.82,591.57
             473.82,591.57 466.22,605.27 466.22,605.27
             466.22,605.27 461.52,613.37 461.52,613.37
             461.52,613.37 458.12,619.77 458.12,619.77
             458.12,619.77 453.22,629.47 453.22,629.47
             453.22,629.47 451.02,634.28 451.02,634.28
             451.02,634.28 446.62,644.58 446.62,644.58
             446.62,644.58 443.22,652.48 443.22,652.48
             443.22,652.48 439.02,662.68 439.02,662.68
             439.02,662.68 472.02,337.84 472.02,337.84 Z
           M 461.92,1229.15
           C 461.92,1229.15 475.92,1216.94 475.92,1216.94
             475.92,1216.94 481.02,1223.25 481.02,1223.25
             481.02,1223.25 489.02,1231.75 489.02,1231.75
             489.02,1231.75 494.22,1236.95 494.22,1236.95
             494.22,1236.95 498.72,1241.05 498.72,1241.05
             498.72,1241.05 510.62,1251.25 510.62,1251.25
             510.62,1251.25 502.82,1330.26 502.82,1330.26
             502.82,1330.26 452.12,1325.06 452.12,1325.06
             452.12,1325.06 461.92,1229.15 461.92,1229.15 Z
           M 501.82,1388.86
           C 501.82,1388.86 578.02,1396.37 578.02,1396.37
             578.02,1396.37 573.32,1449.67 573.32,1449.67
             573.32,1449.67 496.92,1441.47 496.92,1441.47
             496.92,1441.47 501.82,1388.86 501.82,1388.86 Z
           M 596.63,1301.55
           C 596.63,1301.55 609.03,1306.06 609.03,1306.06
             609.03,1306.06 626.53,1311.46 626.53,1311.46
             626.53,1311.46 636.83,1314.06 636.83,1314.06
             636.83,1314.06 651.83,1317.46 651.83,1317.46
             651.83,1317.46 665.63,1320.06 665.63,1320.06
             665.63,1320.06 651.73,1457.37 651.73,1457.37
             651.73,1457.37 582.02,1450.27 582.02,1450.27
             582.02,1450.27 596.63,1301.55 596.63,1301.55 Z
           M 671.23,1320.96
           C 671.23,1320.96 683.63,1322.26 683.63,1322.26
             683.63,1322.26 698.13,1323.66 698.13,1323.66
             698.13,1323.66 708.13,1324.26 708.13,1324.26
             708.13,1324.26 722.83,1325.76 722.83,1325.76
             722.83,1325.76 737.13,1326.96 737.13,1326.96
             737.13,1326.96 723.23,1464.27 723.23,1464.27
             723.23,1464.27 656.43,1457.47 656.43,1457.47
             656.43,1457.47 671.23,1320.96 671.23,1320.96 Z
           M 1761.87,1434.07
           C 1761.87,1434.07 1935.18,1451.17 1935.18,1451.17
             1935.18,1451.17 1921.98,1584.19 1921.98,1584.19
             1921.98,1584.19 1748.77,1566.49 1748.77,1566.49
             1748.77,1566.49 1761.87,1434.07 1761.87,1434.07 Z
           M 1841.58,1163.54
           C 1841.58,1163.54 1962.08,1177.34 1962.08,1177.34
             1962.08,1177.34 1935.18,1446.27 1935.18,1446.27
             1935.18,1446.27 1814.68,1433.87 1814.68,1433.87
             1814.68,1433.87 1841.58,1163.54 1841.58,1163.54 Z
           M 1752.87,1154.54
           C 1752.87,1154.54 1835.18,1163.54 1835.18,1163.54
             1835.18,1163.54 1821.18,1303.95 1821.18,1303.95
             1821.18,1303.95 1788.88,1301.15 1788.88,1301.15
             1788.88,1301.15 1782.67,1364.16 1782.67,1364.16
             1782.67,1364.16 1732.27,1359.26 1732.27,1359.26
             1732.27,1359.26 1752.87,1154.54 1752.87,1154.54 Z
           M 1579.17,719.39
           C 1579.17,719.39 1567.57,647.68 1567.57,647.68
             1567.57,647.68 1596.47,642.98 1596.47,642.98
             1596.47,642.98 1607.77,715.08 1607.77,715.08
             1607.77,715.08 1579.17,719.39 1579.17,719.39 Z
           M 1785.67,707.78
           C 1785.67,707.78 1857.78,696.28 1857.78,696.28
             1857.78,696.28 1862.28,725.39 1862.28,725.39
             1862.28,725.39 1790.18,736.79 1790.18,736.79
             1790.18,736.79 1785.67,707.78 1785.67,707.78 Z
           M 1776.67,132.82
           C 1776.67,132.82 1872.38,121.81 1872.38,121.81
             1872.38,121.81 1885.08,239.63 1885.08,239.63
             1885.08,239.63 1796.38,253.83 1796.38,253.83
             1796.38,253.83 1776.67,132.82 1776.67,132.82 Z
           M 1667.97,148.12
           C 1667.97,148.12 1772.07,134.02 1772.07,134.02
             1772.07,134.02 1792.38,259.33 1792.38,259.33
             1792.38,259.33 1754.07,265.43 1754.07,265.43
             1754.07,265.43 1736.77,268.33 1736.77,268.33
             1736.77,268.33 1734.57,254.33 1734.57,254.33
             1734.57,254.33 1686.17,264.23 1686.17,264.23
             1686.17,264.23 1667.97,148.12 1667.97,148.12 Z
           M 1071.44,1001.72
           C 1071.44,1001.72 1125.45,1007.62 1125.45,1007.62
             1125.45,1007.62 1109.85,1163.34 1109.85,1163.34
             1109.85,1163.34 1055.94,1157.84 1055.94,1157.84
             1055.94,1157.84 1071.44,1001.72 1071.44,1001.72 Z
           M 1209.65,554.77
           C 1209.65,554.77 1238.55,549.87 1238.55,549.87
             1238.55,549.87 1250.25,621.77 1250.25,621.77
             1250.25,621.77 1221.15,626.37 1221.15,626.37
             1221.15,626.37 1209.65,554.77 1209.65,554.77 Z
           M 1431.06,1029.42
           C 1431.06,1029.42 1167.85,1002.82 1167.85,1002.82
             1167.85,1002.82 1192.45,752.79 1192.45,752.79
             1192.45,752.79 1462.56,709.88 1462.56,709.88
             1462.56,709.88 1431.06,1029.42 1431.06,1029.42 Z
           M 1041.84,607.87
           C 1041.84,607.87 1202.55,583.27 1202.55,583.27
             1202.55,583.27 1212.15,643.88 1212.15,643.88
             1212.15,643.88 1034.54,672.28 1034.54,672.28
             1034.54,672.28 1041.84,607.87 1041.84,607.87 Z
           M 1032.84,676.78
           C 1032.84,676.78 1258.85,640.58 1258.85,640.58
             1258.85,640.58 1273.45,734.09 1273.45,734.09
             1273.45,734.09 1188.65,747.79 1188.65,747.79
             1188.65,747.79 1080.05,737.09 1080.05,737.09
             1080.05,737.09 1082.55,713.88 1082.55,713.88
             1082.55,713.88 1030.04,708.58 1030.04,708.58
             1030.04,708.58 1032.84,676.78 1032.84,676.78 Z
           M 1080.05,740.69
           C 1080.05,740.69 1187.35,751.69 1187.35,751.69
             1187.35,751.69 1180.75,815.10 1180.75,815.10
             1180.75,815.10 1073.25,804.20 1073.25,804.20
             1073.25,804.20 1080.05,740.69 1080.05,740.69 Z
           M 1073.25,807.70
           C 1073.25,807.70 1180.75,818.10 1180.75,818.10
             1180.75,818.10 1174.15,882.20 1174.15,882.20
             1174.15,882.20 1066.94,871.40 1066.94,871.40
             1066.94,871.40 1073.25,807.70 1073.25,807.70 Z
           M 1066.04,874.40
           C 1066.04,874.40 1175.15,885.71 1175.15,885.71
             1175.15,885.71 1162.85,1002.12 1162.85,1002.12
             1162.85,1002.12 1054.34,990.72 1054.34,990.72
             1054.34,990.72 1066.04,874.40 1066.04,874.40 Z
           M 925.04,1034.72
           C 925.04,1034.72 992.34,1041.72 992.34,1041.72
             992.34,1041.72 984.54,1121.43 984.54,1121.43
             984.54,1121.43 916.74,1115.03 916.74,1115.03
             916.74,1115.03 925.04,1034.72 925.04,1034.72 Z
           M 844.64,897.61
           C 844.64,897.61 1005.24,913.41 1005.24,913.41
             1005.24,913.41 1000.24,964.91 1000.24,964.91
             1000.24,964.91 839.14,949.41 839.14,949.41
             839.14,949.41 844.64,897.61 844.64,897.61 Z
           M 765.63,919.41
           C 765.63,919.41 836.84,926.81 836.84,926.81
             836.84,926.81 827.13,1019.92 827.13,1019.92
             827.13,1019.92 755.63,1012.62 755.63,1012.62
             755.63,1012.62 765.63,919.41 765.63,919.41 Z
           M 750.33,1017.12
           C 750.33,1017.12 920.04,1033.72 920.04,1033.72
             920.04,1033.72 911.54,1114.33 911.54,1114.33
             911.54,1114.33 699.13,1093.33 699.13,1093.33
             699.13,1093.33 694.13,1092.73 694.13,1092.73
             694.13,1092.73 695.53,1080.43 695.53,1080.43
             695.53,1080.43 707.13,958.31 707.13,958.31
             707.13,958.31 755.63,962.71 755.63,962.71
             755.63,962.71 750.33,1017.12 750.33,1017.12 Z
           M 720.53,837.90
           C 720.53,837.90 849.54,850.90 849.54,850.90
             849.54,850.90 851.24,833.40 851.24,833.40
             851.24,833.40 1015.84,850.30 1015.84,850.30
             1015.84,850.30 1029.54,712.68 1029.54,712.68
             1029.54,712.68 1077.15,717.69 1077.15,717.69
             1077.15,717.69 1071.94,771.99 1071.94,771.99
             1071.94,771.99 1050.04,990.72 1050.04,990.72
             1050.04,990.72 1002.54,986.62 1002.54,986.62
             1002.54,986.62 1010.74,909.21 1010.74,909.21
             1010.74,909.21 840.54,892.41 840.54,892.41
             840.54,892.41 837.74,921.21 837.74,921.21
             837.74,921.21 760.53,913.71 760.53,913.71
             760.53,913.71 755.63,958.31 755.63,958.31
             755.63,958.31 707.73,952.91 707.73,952.91
             707.73,952.91 720.53,837.90 720.53,837.90 Z
           M 635.83,906.61
           C 635.83,906.61 706.03,913.91 706.03,913.91
             706.03,913.91 697.33,1006.82 697.33,1006.82
             697.33,1006.82 625.63,999.62 625.63,999.62
             625.63,999.62 635.83,906.61 635.83,906.61 Z
           M 643.23,829.40
           C 643.23,829.40 714.33,836.90 714.33,836.90
             714.33,836.90 706.73,908.41 706.73,908.41
             706.73,908.41 635.83,900.61 635.83,900.61
             635.83,900.61 643.23,829.40 643.23,829.40 Z
           M 685.13,746.89
           C 685.13,746.89 853.14,763.29 853.14,763.29
             853.14,763.29 844.54,844.30 844.54,844.30
             844.54,844.30 676.53,827.70 676.53,827.70
             676.53,827.70 685.13,746.89 685.13,746.89 Z
           M 690.53,685.08
           C 690.53,685.08 697.83,679.28 697.83,679.28
             697.83,679.28 704.43,675.08 704.43,675.08
             704.43,675.08 713.03,670.68 713.03,670.68
             713.03,670.68 721.03,667.28 721.03,667.28
             721.03,667.28 729.53,664.48 729.53,664.48
             729.53,664.48 739.23,662.28 739.23,662.28
             739.23,662.28 747.33,660.88 747.33,660.88
             747.33,660.88 758.13,661.78 758.13,661.78
             758.13,661.78 748.83,746.89 748.83,746.89
             748.83,746.89 654.63,737.19 654.63,737.19
             654.63,737.19 657.83,727.49 657.83,727.49
             657.83,727.49 661.73,719.79 661.73,719.79
             661.73,719.79 664.93,714.18 664.93,714.18
             664.93,714.18 669.53,706.98 669.53,706.98
             669.53,706.98 675.03,700.18 675.03,700.18
             675.03,700.18 682.53,692.08 682.53,692.08
             682.53,692.08 690.53,685.08 690.53,685.08 Z
           M 756.33,747.49
           C 756.33,747.49 853.54,757.59 853.54,757.59
             853.54,757.59 860.24,680.68 860.24,680.68
             860.24,680.68 852.54,679.88 852.54,679.88
             852.54,679.88 853.54,671.28 853.54,671.28
             853.54,671.28 765.03,662.68 765.03,662.68
             765.03,662.68 756.33,747.49 756.33,747.49 Z
           M 879.74,610.07
           C 879.74,610.07 984.14,620.97 984.14,620.97
             984.14,620.97 969.74,765.39 969.74,765.39
             969.74,765.39 865.44,754.99 865.44,754.99
             865.44,754.99 879.74,610.07 879.74,610.07 Z
           M 1286.75,542.26
           C 1286.75,542.26 1390.76,525.26 1390.76,525.26
             1390.76,525.26 1413.26,669.78 1413.26,669.78
             1413.26,669.78 1309.55,685.98 1309.55,685.98
             1309.55,685.98 1286.75,542.26 1286.75,542.26 Z
           M 1403.56,523.96
           C 1403.56,523.96 1475.66,512.06 1475.66,512.06
             1475.66,512.06 1497.96,656.08 1497.96,656.08
             1497.96,656.08 1426.16,667.08 1426.16,667.08
             1426.16,667.08 1403.56,523.96 1403.56,523.96 Z
           M 1475.66,512.06
           C 1475.66,512.06 1547.26,500.86 1547.26,500.86
             1547.26,500.86 1569.57,644.58 1569.57,644.58
             1569.57,644.58 1497.76,655.68 1497.76,655.68
             1497.76,655.68 1475.66,512.06 1475.66,512.06 Z
           M 1459.16,804.40
           C 1459.16,804.40 1466.16,731.99 1466.16,731.99
             1466.16,731.99 1610.87,745.69 1610.87,745.69
             1610.87,745.69 1604.07,818.00 1604.07,818.00
             1604.07,818.00 1459.16,804.40 1459.16,804.40 Z
           M 1452.16,876.40
           C 1452.16,876.40 1459.16,804.10 1459.16,804.10
             1459.16,804.10 1603.87,817.80 1603.87,817.80
             1603.87,817.80 1597.07,890.01 1597.07,890.01
             1597.07,890.01 1452.16,876.40 1452.16,876.40 Z
           M 1445.26,949.31
           C 1445.26,949.31 1452.16,877.00 1452.16,877.00
             1452.16,877.00 1596.87,890.71 1596.87,890.71
             1596.87,890.71 1590.07,962.91 1590.07,962.91
             1590.07,962.91 1445.26,949.31 1445.26,949.31 Z
           M 1436.36,1039.02
           C 1436.36,1039.02 1443.26,966.61 1443.26,966.61
             1443.26,966.61 1588.07,980.32 1588.07,980.32
             1588.07,980.32 1581.17,1052.63 1581.17,1052.63
             1581.17,1052.63 1436.36,1039.02 1436.36,1039.02 Z
           M 1485.66,1054.93
           C 1485.66,1054.93 1557.97,1062.13 1557.97,1062.13
             1557.97,1062.13 1543.66,1206.84 1543.66,1206.84
             1543.66,1206.84 1471.46,1199.64 1471.46,1199.64
             1471.46,1199.64 1485.66,1054.93 1485.66,1054.93 Z
           M 1413.16,1047.62
           C 1413.16,1047.62 1485.56,1054.83 1485.56,1054.83
             1485.56,1054.83 1471.26,1199.54 1471.26,1199.54
             1471.26,1199.54 1398.96,1192.44 1398.96,1192.44
             1398.96,1192.44 1413.16,1047.62 1413.16,1047.62 Z
           M 1340.96,1040.42
           C 1340.96,1040.42 1413.26,1047.72 1413.26,1047.72
             1413.26,1047.72 1398.96,1192.44 1398.96,1192.44
             1398.96,1192.44 1326.76,1185.24 1326.76,1185.24
             1326.76,1185.24 1340.96,1040.42 1340.96,1040.42 Z
           M 1243.35,1030.32
           C 1243.35,1030.32 1315.66,1037.52 1315.66,1037.52
             1315.66,1037.52 1301.35,1182.24 1301.35,1182.24
             1301.35,1182.24 1229.15,1175.14 1229.15,1175.14
             1229.15,1175.14 1243.35,1030.32 1243.35,1030.32 Z
           M 1142.45,1020.82
           C 1142.45,1020.82 1214.85,1028.02 1214.85,1028.02
             1214.85,1028.02 1200.45,1172.74 1200.45,1172.74
             1200.45,1172.74 1128.25,1165.64 1128.25,1165.64
             1128.25,1165.64 1142.45,1020.82 1142.45,1020.82 Z
           M 750.03,1308.26
           C 750.03,1308.26 822.33,1315.46 822.33,1315.46
             822.33,1315.46 808.03,1460.17 808.03,1460.17
             808.03,1460.17 735.73,1452.97 735.73,1452.97
             735.73,1452.97 750.03,1308.26 750.03,1308.26 Z
           M 840.24,1317.66
           C 840.24,1317.66 912.54,1324.96 912.54,1324.96
             912.54,1324.96 898.24,1469.67 898.24,1469.67
             898.24,1469.67 825.93,1462.47 825.93,1462.47
             825.93,1462.47 840.24,1317.66 840.24,1317.66 Z
           M 912.44,1324.86
           C 912.44,1324.86 984.74,1332.06 984.74,1332.06
             984.74,1332.06 970.44,1476.88 970.44,1476.88
             970.44,1476.88 898.24,1469.67 898.24,1469.67
             898.24,1469.67 912.44,1324.86 912.44,1324.86 Z
           M 984.64,1332.06
           C 984.64,1332.06 1056.94,1339.26 1056.94,1339.26
             1056.94,1339.26 1042.64,1483.98 1042.64,1483.98
             1042.64,1483.98 970.44,1476.88 970.44,1476.88
             970.44,1476.88 984.64,1332.06 984.64,1332.06 Z
           M 1074.85,1340.86
           C 1074.85,1340.86 1147.15,1348.16 1147.15,1348.16
             1147.15,1348.16 1132.85,1492.88 1132.85,1492.88
             1132.85,1492.88 1060.64,1485.68 1060.64,1485.68
             1060.64,1485.68 1074.85,1340.86 1074.85,1340.86 Z
           M 1147.05,1348.06
           C 1147.05,1348.06 1219.35,1355.26 1219.35,1355.26
             1219.35,1355.26 1205.05,1499.98 1205.05,1499.98
             1205.05,1499.98 1132.85,1492.88 1132.85,1492.88
             1132.85,1492.88 1147.05,1348.06 1147.05,1348.06 Z
           M 1219.25,1355.26
           C 1219.25,1355.26 1291.55,1362.46 1291.55,1362.46
             1291.55,1362.46 1277.25,1507.18 1277.25,1507.18
             1277.25,1507.18 1205.05,1499.98 1205.05,1499.98
             1205.05,1499.98 1219.25,1355.26 1219.25,1355.26 Z
           M 1309.15,1363.96
           C 1309.15,1363.96 1381.46,1371.16 1381.46,1371.16
             1381.46,1371.16 1367.16,1515.88 1367.16,1515.88
             1367.16,1515.88 1294.95,1508.78 1294.95,1508.78
             1294.95,1508.78 1309.15,1363.96 1309.15,1363.96 Z
           M 1381.36,1371.16
           C 1381.36,1371.16 1453.76,1378.36 1453.76,1378.36
             1453.76,1378.36 1439.36,1523.08 1439.36,1523.08
             1439.36,1523.08 1367.16,1515.88 1367.16,1515.88
             1367.16,1515.88 1381.36,1371.16 1381.36,1371.16 Z
           M 1453.56,1378.36
           C 1453.56,1378.36 1525.96,1385.56 1525.96,1385.56
             1525.96,1385.56 1511.56,1530.28 1511.56,1530.28
             1511.56,1530.28 1439.36,1523.08 1439.36,1523.08
             1439.36,1523.08 1453.56,1378.36 1453.56,1378.36 Z
           M 1543.66,1387.56
           C 1543.66,1387.56 1615.97,1394.77 1615.97,1394.77
             1615.97,1394.77 1601.67,1539.48 1601.67,1539.48
             1601.67,1539.48 1529.46,1532.28 1529.46,1532.28
             1529.46,1532.28 1543.66,1387.56 1543.66,1387.56 Z
           M 1615.97,1394.77
           C 1615.97,1394.77 1688.27,1401.97 1688.27,1401.97
             1688.27,1401.97 1673.97,1546.68 1673.97,1546.68
             1673.97,1546.68 1601.77,1539.48 1601.77,1539.48
             1601.77,1539.48 1615.97,1394.77 1615.97,1394.77 Z
           M 1744.27,1140.14
           C 1744.27,1140.14 1751.57,1067.73 1751.57,1067.73
             1751.57,1067.73 1896.28,1082.23 1896.28,1082.23
             1896.28,1082.23 1888.98,1154.54 1888.98,1154.54
             1888.98,1154.54 1744.27,1140.14 1744.27,1140.14 Z
           M 1751.57,1067.73
           C 1751.57,1067.73 1758.87,995.42 1758.87,995.42
             1758.87,995.42 1903.58,1009.92 1903.58,1009.92
             1903.58,1009.92 1896.38,1082.13 1896.38,1082.13
             1896.38,1082.13 1751.57,1067.73 1751.57,1067.73 Z
           M 1760.37,977.32
           C 1760.37,977.32 1767.67,905.01 1767.67,905.01
             1767.67,905.01 1912.38,919.51 1912.38,919.51
             1912.38,919.51 1905.18,991.72 1905.18,991.72
             1905.18,991.72 1760.37,977.32 1760.37,977.32 Z
           M 1767.67,905.31
           C 1767.67,905.31 1774.97,833.00 1774.97,833.00
             1774.97,833.00 1919.68,847.50 1919.68,847.50
             1919.68,847.50 1912.38,919.71 1912.38,919.71
             1912.38,919.71 1767.67,905.31 1767.67,905.31 Z
           M 1774.97,833.00
           C 1774.97,833.00 1782.27,760.69 1782.27,760.69
             1782.27,760.69 1926.98,775.19 1926.98,775.19
             1926.98,775.19 1919.68,847.40 1919.68,847.40
             1919.68,847.40 1774.97,833.00 1774.97,833.00 Z
           M 1784.67,699.58
           C 1784.67,699.58 1773.37,627.87 1773.37,627.87
             1773.37,627.87 1917.28,605.17 1917.28,605.17
             1917.28,605.17 1928.28,676.98 1928.28,676.98
             1928.28,676.98 1784.67,699.58 1784.67,699.58 Z
           M 1773.37,627.87
           C 1773.37,627.87 1761.77,555.97 1761.77,555.97
             1761.77,555.97 1905.58,533.36 1905.58,533.36
             1905.58,533.36 1917.28,605.17 1917.28,605.17
             1917.28,605.17 1773.37,627.87 1773.37,627.87 Z
           M 1759.27,538.96
           C 1759.27,538.96 1747.67,467.06 1747.67,467.06
             1747.67,467.06 1891.58,444.35 1891.58,444.35
             1891.58,444.35 1903.18,516.06 1903.18,516.06
             1903.18,516.06 1759.27,538.96 1759.27,538.96 Z
           M 1747.67,467.06
           C 1747.67,467.06 1736.17,395.15 1736.17,395.15
             1736.17,395.15 1879.88,372.54 1879.88,372.54
             1879.88,372.54 1891.58,444.35 1891.58,444.35
             1891.58,444.35 1747.67,467.06 1747.67,467.06 Z
           M 1733.27,374.74
           C 1733.27,374.74 1721.67,302.84 1721.67,302.84
             1721.67,302.84 1865.48,280.23 1865.48,280.23
             1865.48,280.23 1877.18,352.04 1877.18,352.04
             1877.18,352.04 1733.27,374.74 1733.27,374.74 Z
           M 1658.90,163.02
           C 1658.90,163.02 1681.38,306.79 1681.38,306.79
             1681.38,306.79 1609.35,318.05 1609.35,318.05
             1609.35,318.05 1586.87,174.28 1586.87,174.28
             1586.87,174.28 1658.90,163.02 1658.90,163.02 Z
           M 1609.37,318.14
           C 1609.37,318.14 1537.36,329.34 1537.36,329.34
             1537.36,329.34 1514.76,185.72 1514.76,185.72
             1514.76,185.72 1586.77,174.42 1586.77,174.42
             1586.77,174.42 1609.37,318.14 1609.37,318.14 Z
           M 1520.46,331.64
           C 1520.46,331.64 1448.36,342.94 1448.36,342.94
             1448.36,342.94 1425.86,200.12 1425.86,200.12
             1425.86,200.12 1497.76,187.92 1497.76,187.92
             1497.76,187.92 1520.46,331.64 1520.46,331.64 Z
           M 1448.36,343.14
           C 1448.36,343.14 1376.26,354.74 1376.26,354.74
             1376.26,354.74 1353.46,211.33 1353.46,211.33
             1353.46,211.33 1425.56,200.12 1425.56,200.12
             1425.56,200.12 1448.36,343.14 1448.36,343.14 Z
           M 1376.26,354.74
           C 1376.26,354.74 1304.55,366.24 1304.55,366.24
             1304.55,366.24 1281.85,222.33 1281.85,222.33
             1281.85,222.33 1353.46,211.33 1353.46,211.33
             1353.46,211.33 1376.26,354.74 1376.26,354.74 Z
           M 1287.55,369.14
           C 1287.55,369.14 1215.75,380.35 1215.75,380.35
             1215.75,380.35 1193.15,236.53 1193.15,236.53
             1193.15,236.53 1264.75,225.43 1264.75,225.43
             1264.75,225.43 1287.55,369.14 1287.55,369.14 Z
           M 1215.75,380.35
           C 1215.75,380.35 1143.75,391.65 1143.75,391.65
             1143.75,391.65 1120.95,248.53 1120.95,248.53
             1120.95,248.53 1193.15,236.53 1193.15,236.53
             1193.15,236.53 1215.75,380.35 1215.75,380.35 Z
           M 1143.75,391.65
           C 1143.75,391.65 1071.84,402.85 1071.84,402.85
             1071.84,402.85 1048.84,258.83 1048.84,258.83
             1048.84,258.83 1121.05,248.23 1121.05,248.23
             1121.05,248.23 1143.75,391.65 1143.75,391.65 Z
           M 816.13,296.54
           C 816.13,296.54 887.44,284.73 887.44,284.73
             887.44,284.73 887.44,284.73 887.44,284.73
             887.44,284.73 911.54,428.85 911.54,428.85
             911.54,428.85 911.54,428.85 911.54,428.85
             911.54,428.85 839.14,438.85 839.14,438.85
             839.14,438.85 816.13,296.54 816.13,296.54 Z
           M 1054.94,405.85
           C 1054.94,405.85 911.54,428.85 911.54,428.85
             911.54,428.85 887.44,284.73 887.44,284.73
             887.44,284.73 1031.54,261.73 1031.54,261.73
             1031.54,261.73 1054.94,405.85 1054.94,405.85 Z" />
</svg>
