<?xml version="1.0" encoding="utf-8"?>
<!-- Generator: Adobe Illustrator 21.0.0, SVG Export Plug-In . SVG Version: 6.00 Build 0)  -->
<svg version="1.1" id="Warstwa_1" xmlns="http://www.w3.org/2000/svg" xmlns:xlink="http://www.w3.org/1999/xlink" x="0px" y="0px"
	 viewBox="0 0 2383.9 1683.8" style="enable-background:new 0 0 2383.9 1683.8;" xml:space="preserve">
<style type="text/css">
	.st0{fill:none;stroke:#000000;stroke-miterlimit:10;}
	.st1{fill:#FCFCFC;stroke:#000000;stroke-miterlimit:10;}
</style>
<g id="Warstwa_2">
	<image style="overflow:visible;" width="9933" height="7016" xlink:href="RZUT 5.jpg"  transform="matrix(0.24 0 0 0.24 0 0)">
	</image>
</g>
<polygon id="P5.01" class="st0" points="514.1,435.3 384.4,422 392.1,344 496.7,327.7 611.3,309 632.7,443.3 "/>
<polygon id="P5.02" class="st0" points="729,349.2 656.9,360.9 669.2,437.4 639.1,442 627.2,365.8 617.5,308.2 719.9,292 "/>
<polygon id="P5.03" class="st0" points="740.4,419.7 674.7,429.9 665,365.8 730.3,355.8 "/>
<polygon id="P5.04A" class="st0" points="854.3,406.7 748.3,425.2 727,290.7 832.3,274 "/>
<polygon id="P5.04B" class="st0" points="975.2,385.6 854.3,406.7 832.3,274 954,254.7 "/>
<polygon id="P5.05" class="st0" points="1069,287.6 1023.6,294.7 1037.3,379.3 982.2,384.2 960.9,253.4 1060.7,237.5 "/>
<polygon id="P5.06" class="st0" points="1074.9,326.2 1036.2,332.7 1031.5,300.1 1069.7,294 "/>
<polygon id="P5.07" class="st0" points="1081.1,365.5 1042.7,371.5 1037.3,339.3 1075.8,333.3 "/>
<polygon id="P5.08A" class="st0" points="1190.5,330.8 1085.1,349.2 1067.2,236.3 1173.4,219.5 "/>
<polygon id="P5.08B" class="st0" points="1305.5,313.3 1197.8,329.5 1179.9,218.4 1288.6,201.3 "/>
<polygon id="P5.09" class="st0" points="1410.1,249.1 1360,257.6 1374.6,344.1 1318.9,352.9 1295.2,200.1 1398.6,183.9 "/>
<polygon id="P5.10" class="st0" points="1416.8,288.6 1373.3,296 1367.8,263.1 1411.1,255.7 "/>
<polygon id="P5.11" class="st0" points="1423.7,328.8 1379.9,336.3 1374.3,302.6 1417.7,295.4 "/>
<polygon id="P5.12A" class="st0" points="1560.9,316.3 1432.2,333.6 1405.1,182.8 1534.3,162.4 "/>
<polygon id="P5.12B" class="st0" points="1653.6,323.9 1583.8,335.6 1580.7,313.6 1560.9,316.3 1534.3,162.4 1623.5,148.3 "/>
<polygon id="P5.13" class="st0" points="1617.6,540.1 1471.8,564 1432.2,333.6 1580.7,313.6 "/>
<polygon id="P5.14" class="st0" points="1340.1,479.9 1447.3,462.6 1464.8,565.1 1357.8,583.3 "/>
<polygon id="P5.15" class="st0" points="1327.9,407.9 1406.9,395.1 1407.7,398.8 1409.7,402.8 1412.2,406.2 1415.3,409.1 
	1419.8,411.9 1419.8,411.9 1423.6,413.3 1429.6,413.9 1432.2,413.4 1428.8,391.6 1434.9,390.6 1446.1,455.3 1339.1,473.4 "/>
<polygon id="P5.16" class="st0" points="1160.5,454.6 1324.3,428.8 1350.9,584.4 1187.3,612.3 "/>
<polygon id="P5.17" class="st0" points="989.5,486.8 1155,461.8 1178,596.8 1094.4,607.8 1094.3,610.2 1006.5,602.1 "/>
<polygon id="P5.18" class="st0" points="1088.4,670.8 1010.9,661.8 1014,609.6 1093.9,616.9 "/>
<polygon id="P5.19" class="st0" points="1163.6,786.1 1136.9,783.5 1137,779.8 1135.8,774.7 1134.4,771.6 1132.1,768 1128.3,764.1 
	1124.7,761.6 1119.3,759.9 1116.7,759.7 1114.8,781 1085.1,778.4 1100.7,613.7 1178.8,603.4 1180.6,613.3 "/>
<polygon id="P5.20" class="st0" points="1148.5,938.6 1071.3,931 1084.6,785.1 1163.2,793 "/>
<polygon id="P5.21" class="st0" points="984.8,855.5 1070.4,863.6 1068.8,879.7 1075.9,880.5 1071.3,931 978.5,921.8 "/>
<polygon id="P5.22" class="st0" points="980.6,928.8 1148,946 1136.3,1061.2 1114.5,1059.3 1105.7,1152.7 959.9,1137.5 "/>
<polygon id="P5.23" class="st0" points="959.2,1144.8 1027.8,1151.5 1019.2,1242.5 950.1,1235.1 "/>
<polygon id="P5.24" class="st0" points="1034.6,1152.2 1105.4,1159.1 1096.4,1249.4 1025.9,1241 "/>
<polygon id="P5.25" class="st0" points="1219.3,1220.8 1107.3,1207 1120.7,1066.4 1135.7,1068 1135.2,1075 1231.5,1084.3 "/>
<polygon id="P5.26" class="st0" points="1403.6,1240.3 1389.3,1238.7 1391.5,1216.6 1388.8,1216.2 1383.2,1217 1378.9,1218.6 
	1374.5,1221.6 1371.5,1224.9 1369.3,1228.2 1367.7,1231.7 1367.4,1232.4 1366.7,1236.2 1226.1,1220.8 1238.5,1085.3 1417,1102.6 "/>
<polygon id="P5.27" class="st0" points="1521,1185.7 1447.5,1178.3 1439.8,1251 1409.3,1247.7 1416.5,1175.1 1423.7,1103.2 
	1528,1113.5 "/>
<polygon id="P5.28" class="st0" points="1513.3,1263.8 1446.3,1257 1453.7,1186.2 1520,1192.3 "/>
<polygon id="P5.29" class="st0" points="1589.8,1360.8 1701.5,1371.3 1686.7,1517.2 1578,1506.4 "/>
<polygon id="P5.30" class="st0" points="1324.7,1323.7 1583.5,1353.5 1571.3,1505.8 1308.3,1479.7 "/>
<polygon id="P5.31" class="st0" points="1202.7,1397.8 1277.5,1405.1 1286,1318.7 1317.6,1323.1 1301.5,1479.3 1195.3,1468.8 "/>
<polygon id="P5.32" class="st0" points="1210.5,1317.6 1278.6,1324.5 1271.3,1397.8 1203.2,1391.3 "/>
<polygon id="P5.33" class="st0" points="1144.4,1218.7 1175.9,1222.3 1172.4,1259.8 1139.9,1254.8 "/>
<polygon id="P5.34" class="st0" points="1106.4,1214 1137.8,1217.8 1133.3,1254 1102.7,1250.2 "/>
<polygon id="P5.35A" class="st0" points="1098.9,1299.5 1204.5,1310.3 1188.7,1468 1080.6,1457.1 "/>
<polygon id="P5.35B" class="st0" points="982.9,1287.6 1098.9,1299.5 1080.6,1457.1 967.3,1445.9 "/>
<polygon id="P5.36" class="st0" points="939.2,1290 975.9,1293.3 971.9,1334.3 935.1,1330.7 "/>
<polygon id="P5.37" class="st0" points="866.8,1283.9 895.8,1286.7 891.9,1326.6 863.3,1323.8 "/>
<polygon id="P5.38" class="st0" points="863,1331.2 971.4,1340.5 960.8,1445.5 852.1,1434.7 "/>
<polygon id="P5.39" class="st0" points="855.5,1199.8 886.5,1202.8 884.5,1225.5 853.4,1223 "/>
<polygon id="P5.40" class="st0" points="818.7,1197.1 848.9,1199.6 847,1222.3 816.7,1219.9 "/>
<polygon id="P5.41" class="st0" points="728.2,1188.8 811.8,1196.2 809.8,1218.8 726.3,1211.3 "/>
<polygon id="P5.42" class="st0" points="845.8,1434.2 737.8,1423.4 753.1,1277.6 860.3,1286 "/>
<polygon id="P5.43" class="st0" points="731,1422.7 509.9,1400.8 516.5,1328.8 591.8,1336.1 599,1263.9 745.3,1277.6 "/>
<polygon id="P5.44" class="st0" points="524.8,1250.6 592.7,1257.2 585.8,1328.8 517.7,1322.1 "/>
<polygon id="P5.45" class="st0" points="421.1,1244 517.6,1251.3 502.7,1400.2 408.4,1390.9 "/>
<polygon id="P5.46" class="st0" points="303,1232.6 421.1,1244 408.4,1390.9 289.3,1379.3 "/>
<polygon id="P5.47" class="st0" points="628.2,1073.2 732.4,1083.2 719.6,1210.6 616,1200.9 "/>
<polygon id="P5.48" class="st0" points="529.8,1121.4 615.8,1129.1 609.6,1200.9 523.2,1191.8 "/>
<polygon id="P5.49" class="st0" points="430.1,1106.7 523,1115.5 509.9,1250.6 421.1,1244 "/>
<polygon id="P5.50" class="st0" points="317.7,1096 430.1,1106.7 421.1,1244 303,1232.6 "/>
<polygon id="P5.51" class="st0" points="535.8,1064.2 621.3,1072 616.7,1122.8 530.3,1114.6 "/>
<polygon id="P5.52" class="st0" points="331,963 537.8,982.9 523,1115.5 317.7,1096 "/>
<polygon id="P5.53" class="st0" points="738.8,1084.3 801.8,1090.6 797.8,1131.8 871.8,1139.8 866.8,1194.3 729,1182.7 "/>
<polygon id="P5.54" class="st0" points="808.5,1090.9 890.9,1099.7 887.9,1134.3 804.8,1125.5 "/>
<polygon id="P5.55" class="st0" points="748,996.8 884.8,1010.4 879,1071.5 893.5,1072.7 891.7,1092.8 739.4,1077.5 "/>
<polygon id="P5.56" class="st0" points="360.6,658.9 525.3,675.3 513.8,774.5 350.5,757.8 "/>
<polygon id="P5.57" class="st0" points="368.5,584 525.3,599.8 518.9,667.9 361.5,652.2 "/>
<polygon id="P5.58" class="st0" points="462.2,486.3 536.5,493.8 526.5,592.8 452.1,585.4 "/>
<polygon id="P5.59" class="st0" points="378.6,478.1 455.5,485.5 445.4,584.9 368.9,577 "/>
<polygon id="P5.60" class="st0" points="586.3,566.9 740.2,581.8 733.4,642.7 581.8,627.5 "/>
<polygon id="P5.61" class="st0" points="590.8,501.3 678.6,487 676.3,508 747.4,514.8 740.8,575.1 586.6,560.2 "/>
<polygon id="P5.62" class="st0" points="756.3,497.2 802.7,501.2 789.8,648 740.2,643.1 "/>
<polygon id="P5.63" class="st0" points="686,479.3 750.2,489.7 748.3,508 683.9,501.6 "/>
<polygon id="P5.64" class="st0" points="813.5,464.3 840.2,459.8 863.7,598.3 801,591 "/>
<polygon id="P5.65" class="st0" points="801,598.3 945.8,613.8 940.5,663.9 909.4,660.7 905.9,691.6 770.9,678 773.5,653.4 
	795.8,655 "/>
<polygon id="P5.66" class="st0" points="858.6,527.6 922.3,519.1 925.7,542.2 935.6,540.8 944.6,606.8 870.4,598.9 "/>
<polygon id="P5.67" class="st0" points="846.6,458.4 920.8,445.8 931.4,511.3 857.4,521.1 "/>
<polygon id="P5.68" class="st0" points="731.7,685.6 738.3,686.1 735.7,709.4 729.4,709.1 "/>
<polygon id="P5.69" class="st0" points="935.8,705.8 942.4,706.2 939.7,731.8 933.1,730.9 "/>
<polygon id="P5.70" class="st0" points="736.8,730.3 762.8,732.8 762.2,739 736.3,736.6 "/>
<polygon id="P5.71" class="st0" points="729.9,814.9 755.8,817.5 755.1,823.9 729.3,821.4 "/>
<polygon id="P5.72" class="st0" points="756.6,850.6 763,851 760.6,876.6 754,876 "/>
<polygon id="P5.73" class="st0" points="773.2,740.5 930.1,756.4 923.9,818.2 767.3,804.3 "/>
<polygon id="P5.74" class="st0" points="920.3,852.6 926.8,853.3 921.8,910 915.1,909.6 "/>
<polygon id="P5.75" class="st0" points="754.9,934.1 911.7,948.1 906.6,1005.9 748.9,990 "/>
<polygon id="P5.76" class="st0" points="941.4,771 967.3,773.7 966.8,780.1 940.8,777.4 "/>
<polygon id="P5.77" class="st0" points="917.5,1007 943.4,1009.5 942.6,1015.8 916.9,1013.3 "/>
<polygon id="P5.78" class="st0" points="636.9,885.3 661.1,887.4 660.7,894.2 636.5,891.7 "/>
<polygon id="P5.79" class="st0" points="557.1,810.4 563.6,810.9 560.8,836.8 554.4,836.1 "/>
<polygon id="P5.80" class="st0" points="1621.7,1328 1628.4,1328.6 1626,1350.1 1619.4,1349.5 "/>
<polygon id="P5.81" class="st0" points="1635.7,1292.6 1661.5,1295.1 1661,1301.5 1635.1,1299.1 "/>
<polygon id="P5.82" class="st0" points="982.2,384.2 1037.3,379.3 1088.8,370.9 1085.1,349.2 1305.5,313.3 1324.3,428.8 982,483.4 
	1000.6,608.3 1007.2,608.9 1004.9,640.6 1003.3,680 993.3,775.6 985.3,855.5 984.3,855.4 978.5,921.8 974.8,921.5 965.6,1011.4 
	942.8,1241.1 1025.3,1249.3 1025.5,1247.8 1136.7,1261.2 1178.3,1267.3 1182.7,1223 1440,1251 1439,1262.7 1512,1270 1511.8,1274.7 
	1626,1286 1618.9,1357.3 1324.7,1323.7 1204.5,1310.3 1098.9,1299.5 903.3,1280.7 861,1276.4 860.3,1286 745.3,1276.3 745.3,1277.6 
	599,1263.9 600,1251.5 517.7,1243 516.7,1251.2 509.9,1250.6 514.9,1198.5 682.6,1213.8 682.4,1217.7 683.6,1222.8 684.9,1225.9 
	687.1,1229.5 690.8,1233.4 694.5,1236 699.8,1237.8 702.6,1238 704.7,1215.8 704.7,1215.8 855.2,1229.4 890.8,1232.1 893.7,1197.1 
	874,1195.2 878.5,1140.3 894,1141.5 900.7,1066 886.3,1064.3 891.8,1011.2 913.3,1013 927,850.8 935.7,770.5 952.7,614.7 
	926.7,437.8 807.3,458.5 802.7,493.7 750.2,489.7 686,479.3 584.5,495.5 574.1,634.3 557.6,805 537.8,982.9 494.3,978.7 
	513.8,774.5 525.3,675.3 543.7,487.9 380.5,471 384.4,429.9 522,443.3 522,435.8 632.7,443.3 669.2,437.4 748.3,425.2 "/>
<polygon id="P5.83" class="st0" points="759.5,818.2 597.6,801.8 605.8,723.6 766.8,739.9 "/>
<polygon id="P5.84" class="st0" points="1070.4,863.6 992.1,856.2 1004.3,737.5 1081.3,745 "/>
<polygon id="P5.85" class="st0" points="1708.5,1299.6 1631.9,1292.2 1648.7,1125.5 1724.9,1132.9 "/>
<polygon id="P5.86" class="st0" points="912.4,941.1 755.2,927.3 766.8,811.3 922.9,824.9 "/>
<polygon id="P5.87" class="st0" points="732.9,1076.8 536.6,1057.3 564.6,805.5 758.7,824.9 "/>
<polygon id="P5.88" class="st0" points="1430.4,391.3 1428.8,391.6 1432.2,413.4 1429.6,413.9 1424,413.5 1419.8,411.9 
	1415.3,409.1 1412.2,406.2 1410.1,403.5 1407.7,398.8 1406.9,395.1 1404.7,395.5 1403.7,388.4 1429.3,384.7 "/>
<polygon id="P5.89" class="st0" points="1113.2,781.6 1114.8,781.7 1114.8,781 1116.7,759.7 1119.3,759.9 1124.7,761.6 
	1128.3,764.1 1132.1,768 1134.4,771.6 1135.8,774.7 1137,779.8 1136.8,783.5 1139.1,783.7 1138.6,790.5 1112.7,787.9 "/>
<polygon id="P5.90" class="st0" points="1390.8,1238.8 1389.3,1238.6 1389.3,1237.9 1391.5,1216.6 1388.8,1216.2 1383.2,1217 
	1378.9,1218.6 1374.5,1221.6 1371.5,1224.9 1369.5,1227.7 1367.4,1232.4 1366.7,1236.2 1364.8,1236 1364,1242.8 1390.1,1245.6 "/>
<polygon id="P5.91" class="st1" points="706.3,1215.9 704.7,1215.8 704.6,1216.7 702.6,1238 699.8,1237.8 694.5,1236 690.8,1233.4 
	687.1,1229.5 684.9,1225.9 683.6,1222.8 682.4,1217.7 682.6,1213.8 680.2,1213.5 680.9,1207 706.9,1209.4 "/>
</svg>
